<?xml version="1.0" standalone="no"?>
<!DOCTYPE svg PUBLIC "-//W3C//DTD SVG 20010904//EN"
 "http://www.w3.org/TR/2001/REC-SVG-20010904/DTD/svg10.dtd">
<svg version="1.0" xmlns="http://www.w3.org/2000/svg"
 width="390.000000pt" height="360.000000pt" viewBox="0 0 390.000000 360.000000"
 preserveAspectRatio="xMidYMid meet">

<g transform="translate(0.000000,360.000000) scale(0.100000,-0.100000)"
fill="#000000" stroke="none">
<path d="M1577 3072 c-23 -25 -21 -59 3 -79 17 -15 20 -30 20 -110 0 -74 3
-93 14 -93 20 0 27 42 22 121 -4 56 -2 68 14 82 25 21 26 59 2 80 -24 22 -55
21 -75 -1z m63 -17 c6 -8 9 -19 5 -25 -9 -14 -45 6 -45 25 0 19 24 19 40 0z"/>
<path d="M2420 3070 c-26 -26 -25 -46 3 -73 20 -21 22 -31 19 -109 -2 -70 0
-87 13 -92 23 -8 27 12 23 102 -2 68 0 82 15 91 24 16 23 77 -2 91 -29 15 -49
12 -71 -10z m68 -21 c2 -11 -6 -18 -22 -21 -26 -5 -37 7 -28 30 6 18 46 11 50
-9z"/>
<path d="M1928 3008 c-41 -9 -48 -14 -48 -34 0 -39 38 -103 72 -124 97 -58
203 -21 244 86 20 53 15 60 -46 68 -30 4 -38 3 -25 -3 12 -5 27 -16 35 -26 12
-15 12 -22 -5 -53 -16 -30 -26 -38 -55 -40 -62 -5 -95 -3 -98 8 -2 5 -10 10
-18 10 -7 0 -17 12 -20 26 -10 41 23 78 77 85 44 6 44 6 -11 6 -30 0 -76 -4
-102 -9z"/>
<path d="M1784 2936 c-59 -40 -111 -97 -130 -142 -11 -25 -14 -90 -14 -258 0
-123 3 -231 6 -240 10 -26 215 -166 321 -220 41 -20 115 -21 154 0 51 26 231
144 277 181 l42 34 0 237 c0 217 -2 239 -20 278 -23 46 -99 123 -149 148 -31
16 -31 16 -41 -9 -6 -15 -10 -30 -10 -35 0 -20 -67 -84 -105 -101 -93 -43
-196 -4 -246 93 -10 21 -19 44 -19 53 0 22 -9 19 -66 -19z m98 -373 c27 -24
24 -87 -4 -107 -32 -22 -64 -20 -82 6 -48 69 26 156 86 101z m403 -3 c40 -44
10 -120 -46 -120 -34 0 -59 32 -59 74 0 60 66 89 105 46z m-233 -330 c21 0 55
7 75 15 58 24 58 -1 1 -31 -62 -32 -208 -11 -208 30 0 12 7 12 47 0 25 -8 64
-14 85 -14z"/>
<path d="M1573 2739 c-23 -8 -23 -11 -23 -198 0 -186 0 -189 22 -194 12 -4 23
-5 25 -4 7 7 13 396 6 400 -4 3 -18 1 -30 -4z"/>
<path d="M2470 2546 c0 -107 3 -197 8 -199 4 -3 17 -1 30 4 22 8 22 11 22 193
0 158 -2 185 -16 190 -44 17 -44 16 -44 -188z"/>
<path d="M925 2716 c-66 -6 -126 -15 -132 -19 -23 -15 -13 -48 47 -156 33 -59
60 -113 60 -119 0 -7 8 -7 28 0 l28 11 -64 115 c-35 63 -60 118 -55 122 10 10
260 33 273 25 5 -3 24 -31 43 -63 140 -237 189 -323 186 -325 -2 -2 -62 -22
-134 -45 -122 -40 -131 -41 -143 -25 -12 15 -58 100 -65 119 -1 4 13 8 31 9
18 2 36 6 40 10 4 4 -6 5 -22 1 -26 -6 -28 -5 -16 9 17 21 9 27 -36 27 -24 0
-44 -7 -57 -21 -12 -12 -16 -21 -10 -21 8 0 9 -9 3 -29 -11 -41 3 -97 39 -147
21 -31 26 -44 16 -47 -32 -13 -85 83 -85 155 -1 42 -1 43 -15 18 -8 -14 -14
-33 -15 -42 0 -10 -4 -18 -10 -18 -16 0 -11 -72 9 -115 24 -54 45 -69 93 -68
38 2 75 -17 61 -31 -4 -3 -21 -6 -40 -6 -26 0 -33 -4 -33 -20 0 -17 7 -20 41
-20 l42 0 -6 -39 c-3 -22 -12 -50 -21 -62 l-15 -23 -16 35 -16 34 6 -45 c15
-112 95 -221 200 -271 l59 -29 26 24 c14 13 38 30 54 38 l29 15 -43 6 c-24 3
-47 13 -52 21 -5 9 -13 14 -18 11 -5 -3 -11 -1 -15 5 -4 6 -11 8 -16 5 -5 -4
-5 3 0 18 8 20 5 27 -17 44 -33 23 -106 48 -120 39 -5 -3 -15 1 -21 8 -10 11
-8 23 7 53 25 49 37 120 23 137 -6 7 -9 27 -6 45 5 44 -6 69 -54 125 -32 37
-41 55 -41 84 1 35 3 33 46 -50 40 -75 50 -88 71 -88 37 0 304 101 310 117 6
15 -54 121 -254 451 -15 25 -20 25 -208 8z m305 -481 c0 -8 -7 -15 -15 -15 -8
0 -15 7 -15 15 0 8 7 15 15 15 8 0 15 -7 15 -15z m-67 -451 c8 -8 -47 -54 -64
-54 -8 0 0 13 16 29 32 31 38 34 48 25z"/>
<path d="M1490 2651 c-5 -11 -10 -61 -10 -111 0 -88 10 -130 30 -130 6 0 10
53 10 130 0 127 -7 153 -30 111z"/>
<path d="M2560 2538 c0 -130 0 -131 20 -113 17 16 20 31 20 112 0 90 -10 133
-30 133 -6 0 -10 -54 -10 -132z"/>
<path d="M1030 2560 c0 -19 3 -21 12 -12 9 9 9 15 0 24 -9 9 -12 7 -12 -12z"/>
<path d="M979 2510 c26 -22 37 -25 46 -11 7 12 -1 16 -40 25 l-30 6 24 -20z"/>
<path d="M2758 2473 c7 -3 16 -2 19 1 4 3 -2 6 -13 5 -11 0 -14 -3 -6 -6z"/>
<path d="M2868 2463 c23 -2 59 -2 80 0 20 2 1 4 -43 4 -44 0 -61 -2 -37 -4z"/>
<path d="M990 2436 c0 -2 7 -7 16 -10 8 -3 12 -2 9 4 -6 10 -25 14 -25 6z"/>
<path d="M2798 2423 c34 -2 90 -2 125 0 34 2 6 3 -63 3 -69 0 -97 -1 -62 -3z"/>
<path d="M2740 2380 c0 -6 47 -10 120 -10 73 0 120 4 120 10 0 6 -47 10 -120
10 -73 0 -120 -4 -120 -10z"/>
<path d="M2750 2330 c20 -13 207 -13 215 0 4 6 -36 10 -112 10 -80 0 -113 -3
-103 -10z"/>
<path d="M2998 2323 c7 -3 16 -2 19 1 4 3 -2 6 -13 5 -11 0 -14 -3 -6 -6z"/>
<path d="M3075 2280 c21 -22 41 -40 44 -40 3 0 -13 18 -34 40 -21 22 -41 40
-44 40 -3 0 13 -18 34 -40z"/>
<path d="M2960 2293 c0 -9 14 -32 32 -50 34 -35 45 -84 47 -199 1 -45 -2 -52
-20 -57 -18 -5 -20 -11 -14 -34 3 -15 8 -29 9 -31 2 -1 26 2 54 8 46 10 50 13
43 33 -6 17 -3 27 15 44 20 18 24 32 24 80 0 74 -27 122 -98 180 -55 45 -92
55 -92 26z m104 -83 c25 -42 26 -125 2 -149 -16 -15 -16 -12 -10 39 6 53 2 70
-34 144 -12 25 26 -5 42 -34z"/>
<path d="M2775 2280 c73 -12 117 -12 110 0 -3 6 -41 9 -83 9 -75 -2 -76 -2
-27 -9z"/>
<path d="M2763 2223 c15 -2 39 -2 55 0 15 2 2 4 -28 4 -30 0 -43 -2 -27 -4z"/>
<path d="M2938 2145 c-20 -19 -39 -35 -42 -35 -3 0 -12 12 -20 28 l-15 27 0
-25 c-1 -32 9 -45 36 -52 17 -5 30 2 53 28 16 19 30 41 30 49 0 20 0 20 -42
-20z"/>
<path d="M2885 2160 c3 -5 10 -10 16 -10 5 0 9 5 9 10 0 6 -7 10 -16 10 -8 0
-12 -4 -9 -10z"/>
<path d="M1810 2120 c0 -21 64 -81 113 -104 73 -36 123 -41 191 -22 56 17 125
68 147 108 19 35 1 32 -63 -10 -120 -78 -189 -78 -309 0 -61 39 -79 45 -79 28z"/>
<path d="M1794 2046 c-16 -42 62 -115 152 -142 135 -40 308 18 343 116 17 49
-11 50 -62 2 -54 -49 -103 -67 -187 -66 -76 1 -153 30 -196 75 -31 32 -42 36
-50 15z"/>
<path d="M2670 2038 c0 -4 36 -8 79 -8 44 0 88 -3 98 -6 14 -4 15 -4 3 4 -19
12 -180 21 -180 10z"/>
<path d="M1754 1975 c-10 -25 16 -74 59 -110 59 -51 124 -70 237 -70 88 0 101
3 163 33 73 36 117 86 117 134 0 37 -13 35 -45 -7 -66 -85 -244 -121 -370 -74
-38 14 -76 38 -104 65 -24 24 -45 44 -48 44 -2 0 -6 -7 -9 -15z"/>
<path d="M1711 1891 c-15 -27 34 -99 93 -138 101 -67 289 -83 416 -34 66 25
137 92 146 137 9 49 -11 49 -56 0 -57 -61 -123 -88 -236 -94 -76 -4 -105 -1
-165 18 -63 19 -82 30 -127 76 -29 30 -54 54 -57 54 -2 0 -9 -8 -14 -19z"/>
<path d="M3112 1873 c-2 -27 -18 -38 -25 -19 -3 8 -15 14 -26 13 -19 -1 -18
-4 11 -34 l32 -33 -15 -43 c-17 -46 -38 -56 -75 -36 -17 9 -24 21 -24 43 l-1
31 -14 -30 c-13 -29 -12 -31 32 -72 53 -50 45 -56 -15 -12 -41 30 -42 30 -64
12 -13 -10 -24 -25 -26 -33 -7 -37 -43 -51 -124 -49 -68 2 -82 0 -109 -20 -30
-23 -32 -23 -76 -6 -51 20 -59 33 -45 74 10 28 8 31 -42 65 -28 19 -65 49 -80
65 -35 36 -27 60 12 36 24 -14 24 -13 -3 9 -16 14 -33 26 -36 26 -4 0 -10 -15
-13 -34 -4 -18 -24 -54 -45 -78 l-39 -44 20 -24 c11 -14 16 -19 12 -11 -4 8
17 0 47 -18 147 -88 266 -132 376 -139 98 -5 165 13 236 64 86 63 131 157 124
262 -2 31 -4 47 -5 35z m-124 -279 c-9 -8 -68 53 -68 70 0 10 13 2 36 -24 20
-22 35 -43 32 -46z"/>
<path d="M1100 1864 c0 -6 7 -19 16 -30 14 -18 14 -18 3 6 -14 31 -19 36 -19
24z"/>
<path d="M1630 1835 c-55 -36 -61 -47 -11 -21 16 9 33 11 41 6 10 -6 -2 -18
-43 -44 -64 -41 -73 -52 -58 -70 18 -21 9 -40 -22 -51 -27 -10 -28 -11 -10
-27 19 -17 47 -9 252 79 10 5 12 0 6 -17 -5 -15 -4 -20 4 -16 18 12 13 23 -34
72 -32 33 -47 57 -51 85 -4 21 -9 39 -13 39 -3 0 -31 -16 -61 -35z"/>
<path d="M2275 1690 c-9 -14 -122 -47 -190 -54 -57 -7 -97 0 -232 40 -20 5
-25 0 -43 -41 -24 -56 -25 -88 -5 -105 8 -7 15 -21 15 -32 0 -10 7 -33 16 -50
14 -26 14 -38 5 -72 -27 -92 -84 -228 -121 -285 l-39 -61 -33 30 c-18 17 -36
30 -41 30 -5 0 -7 9 -4 20 3 12 -12 1 -39 -29 -45 -50 -113 -91 -151 -91 -20
0 -21 -1 -7 -30 9 -16 14 -42 12 -57 -3 -28 -3 -28 -83 -28 -50 0 -102 8 -137
19 -55 18 -57 19 -43 39 18 25 20 67 4 67 -7 0 -9 10 -5 25 6 25 -7 64 -27 77
-6 3 9 28 36 58 25 29 43 58 41 65 -3 7 6 20 20 29 26 17 34 36 16 36 -6 0
-22 -11 -35 -24 -15 -15 -27 -20 -34 -15 -6 5 -8 6 -6 2 7 -9 -246 -263 -262
-263 -6 0 -13 8 -16 18 -4 16 -4 16 -12 -1 -9 -21 16 -53 49 -63 11 -4 27 -15
34 -25 7 -11 23 -19 35 -19 19 0 18 3 -10 20 -38 23 -40 31 -14 54 19 17 21
17 53 -7 18 -13 43 -27 56 -30 18 -4 22 -1 22 18 0 26 24 50 40 40 15 -10 12
-21 -15 -53 l-25 -29 57 -22 c63 -24 166 -40 233 -36 174 10 315 116 412 310
14 28 52 122 83 210 32 88 61 164 65 168 4 5 11 -20 14 -55 11 -96 30 -171 45
-176 11 -4 13 2 8 25 -3 17 -9 54 -13 84 -6 47 -5 52 7 39 8 -8 22 -33 30 -55
9 -22 21 -39 27 -38 6 2 4 -10 -6 -26 -22 -39 -5 -77 40 -89 26 -6 34 -15 39
-39 6 -32 78 -163 89 -163 4 0 -9 30 -27 68 -35 70 -53 142 -36 142 6 0 13
-14 17 -32 3 -17 8 -29 11 -27 4 5 -9 64 -22 99 -8 24 -16 258 -9 277 5 12 16
1 43 -45 130 -220 332 -366 558 -402 73 -12 116 -5 109 15 -4 8 -31 16 -72 21
-78 8 -87 11 -72 29 15 19 9 56 -12 68 -27 18 -50 -10 -46 -55 4 -43 3 -45
-11 -19 -7 12 -7 30 0 55 10 35 17 41 49 36 21 -3 14 2 -55 38 -36 19 -51 24
-37 12 l24 -20 -21 -26 c-12 -15 -21 -37 -21 -51 0 -23 -1 -23 -29 -8 -54 28
-182 136 -214 181 -46 65 -51 91 -25 132 21 34 21 35 3 69 -13 23 -28 36 -47
40 -36 7 -44 20 -18 28 11 3 20 11 20 16 0 12 -7 12 -15 -1z m35 -96 c0 -13
-3 -14 -13 -5 -8 6 -18 7 -22 3 -5 -4 -5 -1 -1 6 10 18 36 15 36 -4z m-477
-15 c-4 -13 -9 -17 -15 -11 -11 11 -3 32 12 32 4 0 6 -9 3 -21z m281 -254 c-4
-8 -10 -15 -15 -15 -5 0 -9 7 -9 15 0 8 7 15 15 15 9 0 12 -6 9 -15z m53 -47
c-3 -8 -6 -5 -6 6 -1 11 2 17 5 13 3 -3 4 -12 1 -19z m-1039 -190 c22 -22 15
-53 -12 -53 -35 0 -48 18 -30 44 17 24 25 26 42 9z m486 -53 c24 -22 34 -45
20 -45 -4 0 -17 12 -31 26 -13 14 -31 24 -41 22 -27 -5 -26 -43 2 -65 l25 -20
-32 -16 c-18 -9 -46 -25 -62 -36 l-31 -20 -2 30 c-1 17 -7 39 -12 50 -9 15 -4
21 32 37 24 11 52 29 62 41 25 27 37 27 70 -4z"/>
<path d="M1375 1645 c-5 -2 -22 -6 -37 -9 -64 -14 -127 -102 -128 -178 0 -101
81 -181 185 -181 64 0 107 23 145 74 57 80 47 185 -25 248 -41 36 -106 57
-140 46z m72 -26 c78 -29 126 -125 104 -207 -15 -55 -76 -108 -134 -117 -58
-9 -124 19 -158 66 -34 49 -34 149 0 198 41 57 125 84 188 60z"/>
<path d="M1329 1493 l-1 -28 -8 25 c-6 19 -8 11 -9 -32 -1 -32 -2 -61 -3 -65
-2 -5 39 -9 90 -11 78 -3 92 -1 92 12 0 12 -7 14 -27 10 -35 -7 -48 -8 -100
-6 -40 2 -43 4 -42 30 2 23 2 24 6 5 4 -19 11 -23 39 -23 l35 0 -3 53 c-3 51
-4 52 -35 55 -30 3 -33 1 -34 -25z"/>
<path d="M1433 1513 c-20 -4 -23 -10 -23 -55 l0 -51 36 6 c20 3 38 7 39 9 8 8
-9 98 -19 97 -6 -1 -21 -4 -33 -6z"/>
<path d="M2340 1646 c0 -2 8 -10 18 -17 15 -13 16 -12 3 4 -13 16 -21 21 -21
13z"/>
<path d="M1751 1594 c0 -11 3 -14 6 -6 3 7 2 16 -1 19 -3 4 -6 -2 -5 -13z"/>
<path d="M3220 1511 c42 -7 31 -17 -38 -34 -51 -13 -63 -29 -80 -105 -10 -41
-9 -42 17 -42 25 0 27 3 23 34 -4 33 -3 34 67 61 60 23 71 30 71 51 0 27 -27
45 -67 43 -25 -2 -25 -2 7 -8z m41 -45 c-14 -17 -76 -39 -92 -34 -7 2 9 15 35
28 25 14 46 29 46 34 0 6 5 5 12 -2 8 -8 8 -15 -1 -26z"/>
<path d="M3010 1463 c-17 -22 -21 -38 -18 -89 2 -54 -1 -66 -26 -99 -28 -36
-28 -38 -13 -70 15 -32 14 -45 -5 -45 -5 0 -6 4 -3 10 3 5 0 7 -9 4 -17 -7
-30 27 -21 56 5 17 2 20 -27 20 -18 0 -53 5 -77 11 -24 5 -46 8 -48 5 -3 -2
20 -10 51 -17 52 -11 55 -13 50 -38 -4 -18 1 -35 16 -54 25 -32 37 -33 70 -10
14 10 35 16 47 15 26 -4 71 18 96 46 13 14 37 22 82 27 40 4 73 14 87 25 22
18 22 20 8 47 -9 15 -25 29 -35 30 -17 3 -16 1 3 -7 27 -11 31 -64 6 -74 -36
-14 -144 -2 -144 16 0 5 10 9 23 8 42 -4 67 0 67 10 0 6 -22 10 -50 10 -47 0
-50 -2 -79 -43 -45 -65 -57 -73 -81 -52 -26 23 -25 31 4 59 12 13 26 31 29 40
4 9 17 16 30 16 33 0 37 7 24 41 -9 22 -8 37 1 61 6 17 10 33 9 34 -2 2 -15
-8 -30 -22 -18 -16 -27 -35 -27 -55 0 -18 -4 -28 -10 -24 -5 3 -10 24 -10 46
0 53 30 83 73 75 18 -3 37 -2 44 2 7 4 -9 9 -37 10 -42 2 -51 -2 -70 -25z"/>
<path d="M3342 1380 c0 -14 2 -19 5 -12 2 6 2 18 0 25 -3 6 -5 1 -5 -13z"/>
<path d="M3346 1334 c-3 -9 -6 -42 -6 -74 l0 -58 44 -26 c25 -14 49 -26 55
-26 23 0 9 21 -29 45 -39 25 -40 26 -40 85 0 58 -12 85 -24 54z"/>
<path d="M2015 1243 c21 -71 57 -164 61 -160 2 2 -4 30 -15 63 -10 32 -22 78
-26 102 -4 25 -12 42 -20 42 -12 0 -12 -8 0 -47z"/>
<path d="M3200 1281 c0 -5 -10 -12 -22 -14 -20 -4 -19 -4 5 -6 18 -1 27 4 27
14 0 8 -2 15 -5 15 -3 0 -5 -4 -5 -9z"/>
<path d="M1107 1245 c-15 -14 -27 -29 -27 -32 0 -4 15 6 32 23 18 16 35 30 37
32 2 1 0 2 -5 2 -5 0 -22 -11 -37 -25z"/>
<path d="M923 1233 c9 -2 23 -2 30 0 6 3 -1 5 -18 5 -16 0 -22 -2 -12 -5z"/>
<path d="M1019 1219 c31 -18 32 -22 18 -36 -14 -14 -18 -14 -45 6 -32 22 -77
27 -102 11 -10 -7 -11 -10 -2 -11 6 -1 17 -3 22 -4 6 -1 18 -3 28 -4 9 0 29
-12 43 -25 l27 -25 31 33 c17 17 31 35 31 39 0 8 -55 37 -72 37 -7 0 2 -9 21
-21z"/>
<path d="M3500 1230 c0 -5 7 -10 15 -10 8 0 15 5 15 10 0 6 -7 10 -15 10 -8 0
-15 -4 -15 -10z"/>
<path d="M3188 1193 c7 -3 16 -2 19 1 4 3 -2 6 -13 5 -11 0 -14 -3 -6 -6z"/>
<path d="M3542 1163 c-24 -81 -102 -142 -182 -143 -19 0 -42 -5 -50 -10 -27
-17 99 -12 136 6 41 19 101 84 110 118 3 13 4 35 2 47 -2 20 -5 16 -16 -18z"/>
<path d="M907 1122 c-27 -28 -34 -56 -19 -79 6 -9 21 1 53 33 42 44 43 46 25
60 -26 19 -28 18 -59 -14z m39 -13 c9 -16 -21 -43 -41 -36 -13 5 -14 11 -5 27
12 22 35 26 46 9z"/>
<path d="M3361 1054 c0 -11 3 -14 6 -6 3 7 2 16 -1 19 -3 4 -6 -2 -5 -13z"/>
<path d="M2217 1025 c-40 -28 -46 -45 -21 -69 20 -21 5 -21 -24 0 -34 23 -26
2 12 -35 26 -25 34 -29 30 -15 -3 15 7 25 44 46 l49 26 43 -25 c54 -32 127
-55 135 -42 4 5 -4 9 -17 9 -39 1 -105 36 -156 84 -27 25 -51 46 -53 46 -2 0
-21 -11 -42 -25z m55 -22 c-6 -2 -9 -10 -6 -15 4 -7 2 -8 -5 -4 -13 9 -5 26
12 25 9 0 8 -2 -1 -6z"/>
<path d="M2720 1020 c0 -5 6 -10 13 -10 13 0 87 -72 87 -85 0 -3 -13 1 -30 10
-39 20 -73 19 -119 -5 l-39 -19 3 24 c2 25 -5 25 -37 -3 -9 -7 -21 -11 -27 -8
-19 12 -22 -15 -5 -59 14 -39 21 -45 45 -45 17 0 111 -41 219 -95 104 -52 196
-95 203 -95 20 0 201 200 191 210 -5 5 -100 50 -212 99 -157 71 -213 91 -247
91 -25 0 -45 -4 -45 -10z m152 -37 c43 -15 78 -31 78 -35 0 -15 -30 -20 -45
-8 -12 10 -18 10 -30 0 -16 -13 -30 -7 -30 12 0 6 -9 16 -20 22 -80 45 -64 48
47 9z m136 -59 c34 -16 42 -34 17 -34 -8 0 -15 -6 -15 -14 0 -8 -6 -16 -14
-19 -17 -7 -92 30 -88 44 1 5 -7 4 -18 -3 -20 -13 -20 -13 10 -22 16 -5 30
-13 30 -17 0 -5 9 -9 19 -9 26 0 34 -15 17 -30 -18 -14 -61 5 -50 22 4 6 -1 8
-14 4 -11 -4 -26 -1 -33 6 -8 7 -20 13 -28 13 -8 0 -16 6 -18 13 -3 6 0 12 5
12 5 0 19 9 32 20 13 12 29 19 34 17 46 -17 56 -18 56 -3 0 20 18 20 58 0z
m-188 -14 c12 -7 8 -11 -18 -16 -28 -6 -62 -35 -62 -55 0 -9 168 -89 187 -89
10 0 13 -6 9 -16 -5 -12 -1 -14 15 -9 11 4 30 0 44 -9 28 -18 45 -21 45 -6 0
6 -11 15 -25 20 -14 5 -25 14 -25 19 0 5 -9 7 -21 4 -15 -4 -22 0 -26 16 -4
14 -11 20 -22 17 -24 -8 -49 10 -34 25 12 12 53 3 53 -12 0 -5 9 -9 19 -9 11
0 22 -4 25 -9 3 -5 15 -11 27 -14 16 -4 19 -2 14 10 -7 19 12 34 32 26 18 -7
17 -29 -2 -37 -21 -8 -19 -26 4 -26 12 0 18 7 17 18 -1 11 6 17 20 16 18 0 20
2 11 17 -6 10 -14 16 -18 14 -3 -3 -15 2 -25 10 -18 14 -18 15 4 21 12 3 22
13 22 21 0 10 -6 12 -19 8 -22 -7 -38 12 -23 27 6 6 26 1 58 -15 27 -14 57
-28 67 -31 10 -3 17 -10 15 -15 -2 -5 -38 -46 -82 -92 l-78 -83 -184 93 c-101
51 -184 96 -184 101 0 4 16 22 35 39 37 32 93 42 125 21z m-2 -50 c12 -11 30
-20 42 -20 11 0 20 -5 20 -10 0 -21 -30 -21 -59 -1 -16 12 -36 21 -45 21 -19
0 -21 16 -3 23 20 9 22 8 45 -13z m234 -22 c-5 -5 -20 -7 -32 -3 -17 5 -19 10
-9 21 8 10 16 11 31 3 14 -7 17 -14 10 -21z m-32 -22 c0 -18 -31 -29 -44 -16
-8 8 -7 14 4 20 22 14 40 12 40 -4z"/>
<path d="M2960 900 c0 -5 7 -10 15 -10 8 0 15 5 15 10 0 6 -7 10 -15 10 -8 0
-15 -4 -15 -10z"/>
<path d="M3102 828 c2 -6 15 -13 27 -15 20 -3 22 -1 11 12 -15 18 -43 20 -38
3z"/>
<path d="M2688 1013 c7 -3 16 -2 19 1 4 3 -2 6 -13 5 -11 0 -14 -3 -6 -6z"/>
<path d="M1277 973 c18 -2 50 -2 70 0 21 2 7 4 -32 4 -38 0 -55 -2 -38 -4z"/>
<path d="M1341 946 c-18 -22 4 -58 32 -54 31 4 32 62 1 66 -11 2 -26 -4 -33
-12z"/>
<path d="M2492 898 c-14 -14 -16 -52 -3 -76 8 -15 2 -17 -52 -15 -53 2 -58 1
-32 -8 38 -12 155 -2 155 14 0 7 -9 18 -20 25 -13 8 -20 23 -20 42 0 32 -9 37
-28 18z"/>
<path d="M2330 820 c8 -5 22 -9 30 -9 10 0 8 3 -5 9 -27 12 -43 12 -25 0z"/>
</g>
</svg>
